<?xml version="1.0" encoding="UTF-8" standalone="no"?>
<!DOCTYPE svg PUBLIC "-//W3C//DTD SVG 1.1//EN"
 "http://www.w3.org/Graphics/SVG/1.1/DTD/svg11.dtd">
<!-- Generated by graphviz version 12.1.2 (20240928.0832)
 -->
<!-- Title: binary&#45;gentoo Pages: 1 -->
<svg width="935pt" height="1013pt"
 viewBox="0.00 0.00 934.50 1013.00" xmlns="http://www.w3.org/2000/svg" xmlns:xlink="http://www.w3.org/1999/xlink">
<g id="graph0" class="graph" transform="scale(1 1) rotate(0) translate(4 1009)">
<title>binary&#45;gentoo</title>
<polygon fill="white" stroke="none" points="-4,4 -4,-1009 930.5,-1009 930.5,4 -4,4"/>
<text text-anchor="middle" x="463.25" y="-972.5" font-family="Times,serif" font-size="30.00">How do binary&#45;gentoo&#39;s tools play together?</text>
<g id="clust1" class="cluster">
<title>cluster_monitoring</title>
<polygon fill="none" stroke="black" points="584,-563 584,-955.25 812,-955.25 812,-563 584,-563"/>
<text text-anchor="middle" x="698" y="-922.75" font-family="Times,serif" font-size="30.00">Monitor</text>
</g>
<g id="clust2" class="cluster">
<title>cluster_queue</title>
<polygon fill="none" stroke="black" points="562,-346.25 562,-440 802,-440 802,-346.25 562,-346.25"/>
<text text-anchor="middle" x="682" y="-407.5" font-family="Times,serif" font-size="30.00"> &#160;Build Queue </text>
</g>
<g id="clust3" class="cluster">
<title>cluster_worker</title>
<polygon fill="none" stroke="black" points="8,-8 8,-311.75 722,-311.75 722,-8 8,-8"/>
<text text-anchor="middle" x="365" y="-279.25" font-family="Times,serif" font-size="30.00">Worker</text>
</g>
<!-- gentoo&#45;build -->
<g id="node1" class="node">
<title>gentoo&#45;build</title>
<ellipse fill="limegreen" stroke="black" cx="94" cy="-155.5" rx="78.48" ry="18"/>
<text text-anchor="middle" x="94" y="-150.45" font-family="monospace" font-size="14.00">gentoo&#45;build</text>
</g>
<!-- distdir -->
<g id="node12" class="node">
<title>distdir</title>
<ellipse fill="#c1ffc1" stroke="black" cx="204" cy="-34" rx="39.58" ry="18"/>
<text text-anchor="middle" x="204" y="-28.95" font-family="Times,serif" font-size="14.00"> distdir/</text>
</g>
<!-- gentoo&#45;build&#45;&gt;distdir -->
<g id="edge14" class="edge">
<title>gentoo&#45;build&#45;&gt;distdir</title>
<path fill="none" stroke="black" d="M93.41,-137.18C93.7,-118.45 97,-88.77 113.25,-70 124.29,-57.24 140.54,-49.11 156.25,-43.94"/>
<polygon fill="black" stroke="black" points="156.9,-47.39 165.52,-41.23 154.94,-40.67 156.9,-47.39"/>
<text text-anchor="middle" x="145.12" y="-106.2" font-family="Times,serif" font-size="14.00">(reads from</text>
<text text-anchor="middle" x="145.12" y="-89.7" font-family="Times,serif" font-size="14.00">and)</text>
<text text-anchor="middle" x="145.12" y="-73.2" font-family="Times,serif" font-size="14.00">writes to</text>
</g>
<!-- logdir -->
<g id="node13" class="node">
<title>logdir</title>
<ellipse fill="#c1ffc1" stroke="black" cx="54" cy="-34" rx="38.04" ry="18"/>
<text text-anchor="middle" x="54" y="-28.95" font-family="Times,serif" font-size="14.00"> logdir/</text>
</g>
<!-- gentoo&#45;build&#45;&gt;logdir -->
<g id="edge13" class="edge">
<title>gentoo&#45;build&#45;&gt;logdir</title>
<path fill="none" stroke="black" d="M60.87,-138.8C53.62,-133.71 46.88,-127.31 42.75,-119.5 33.51,-102 36.99,-79.73 42.43,-62.45"/>
<polygon fill="black" stroke="black" points="45.61,-63.93 45.66,-53.33 39.02,-61.59 45.61,-63.93"/>
<text text-anchor="middle" x="66.38" y="-89.7" font-family="Times,serif" font-size="14.00">writes to</text>
</g>
<!-- pkgdir -->
<g id="node14" class="node">
<title>pkgdir</title>
<ellipse fill="#c1ffc1" stroke="black" cx="356" cy="-34" rx="40.09" ry="18"/>
<text text-anchor="middle" x="356" y="-28.95" font-family="Times,serif" font-size="14.00"> pkgdir/</text>
</g>
<!-- gentoo&#45;build&#45;&gt;pkgdir -->
<g id="edge9" class="edge">
<title>gentoo&#45;build&#45;&gt;pkgdir</title>
<path fill="none" stroke="black" d="M143.71,-141.14C155.81,-135.98 167.88,-128.96 177,-119.5 193.32,-102.56 177.94,-85.37 195.75,-70 204.3,-62.62 263.83,-50.94 307.84,-43.13"/>
<polygon fill="black" stroke="black" points="308.21,-46.62 317.45,-41.44 307,-39.72 308.21,-46.62"/>
<text text-anchor="middle" x="219.38" y="-89.7" font-family="Times,serif" font-size="14.00">writes to</text>
</g>
<!-- gentoo&#45;clean -->
<g id="node2" class="node">
<title>gentoo&#45;clean</title>
<ellipse fill="limegreen" stroke="black" cx="269" cy="-155.5" rx="78.48" ry="18"/>
<text text-anchor="middle" x="269" y="-150.45" font-family="monospace" font-size="14.00">gentoo&#45;clean</text>
</g>
<!-- gentoo&#45;clean&#45;&gt;distdir -->
<g id="edge16" class="edge">
<title>gentoo&#45;clean&#45;&gt;distdir</title>
<path fill="none" stroke="black" d="M267.65,-137.04C265.56,-119.01 260.28,-90.66 247,-70 243.83,-65.07 239.73,-60.5 235.33,-56.4"/>
<polygon fill="black" stroke="black" points="237.72,-53.84 227.81,-50.1 233.23,-59.2 237.72,-53.84"/>
<text text-anchor="middle" x="296.59" y="-106.2" font-family="Times,serif" font-size="14.00">(reads from</text>
<text text-anchor="middle" x="296.59" y="-89.7" font-family="Times,serif" font-size="14.00">and)</text>
<text text-anchor="middle" x="296.59" y="-73.2" font-family="Times,serif" font-size="14.00">writes to</text>
</g>
<!-- gentoo&#45;clean&#45;&gt;pkgdir -->
<g id="edge17" class="edge">
<title>gentoo&#45;clean&#45;&gt;pkgdir</title>
<path fill="none" stroke="black" d="M307.26,-139.49C316.44,-134.34 325.47,-127.74 332,-119.5 344.62,-103.57 350.61,-81.33 353.44,-63.67"/>
<polygon fill="black" stroke="black" points="356.91,-64.17 354.75,-53.8 349.97,-63.26 356.91,-64.17"/>
<text text-anchor="middle" x="383.76" y="-106.2" font-family="Times,serif" font-size="14.00">(reads from</text>
<text text-anchor="middle" x="383.76" y="-89.7" font-family="Times,serif" font-size="14.00">and)</text>
<text text-anchor="middle" x="383.76" y="-73.2" font-family="Times,serif" font-size="14.00">writes to</text>
</g>
<!-- gentoo&#45;local&#45;queue -->
<g id="node3" class="node">
<title>gentoo&#45;local&#45;queue</title>
<ellipse fill="limegreen" stroke="black" cx="682" cy="-372.25" rx="112.26" ry="18"/>
<text text-anchor="middle" x="682" y="-367.2" font-family="monospace" font-size="14.00">gentoo&#45;local&#45;queue</text>
</g>
<!-- ATOM_2 -->
<g id="node9" class="node">
<title>ATOM_2</title>
<ellipse fill="lightblue" stroke="black" cx="762" cy="-244" rx="32.41" ry="18"/>
<text text-anchor="middle" x="762" y="-238.95" font-family="Times,serif" font-size="14.00">Atom</text>
</g>
<!-- gentoo&#45;local&#45;queue&#45;&gt;ATOM_2 -->
<g id="edge8" class="edge">
<title>gentoo&#45;local&#45;queue&#45;&gt;ATOM_2</title>
<path fill="none" stroke="black" d="M695.77,-354.01C704.8,-342.37 716.63,-326.5 726,-311.75 734.08,-299.03 742.13,-284.34 748.56,-271.98"/>
<polygon fill="black" stroke="black" points="751.63,-273.68 753.07,-263.18 745.4,-270.48 751.63,-273.68"/>
<text text-anchor="middle" x="730.61" y="-322.95" font-family="Times,serif" font-size="14.00">pop</text>
</g>
<!-- gentoo&#45;packages -->
<g id="node4" class="node">
<title>gentoo&#45;packages</title>
<ellipse fill="limegreen" stroke="black" cx="540" cy="-155.5" rx="174.19" ry="18"/>
<text text-anchor="middle" x="540" y="-150.45" font-family="monospace" font-size="14.00">gentoo&#45;packages {delete,list}</text>
</g>
<!-- gentoo&#45;packages&#45;&gt;pkgdir -->
<g id="edge18" class="edge">
<title>gentoo&#45;packages&#45;&gt;pkgdir</title>
<path fill="none" stroke="black" d="M517.08,-137.19C493.31,-119.52 454.82,-91.69 420,-70 410.92,-64.35 400.87,-58.61 391.47,-53.47"/>
<polygon fill="black" stroke="black" points="393.4,-50.54 382.94,-48.87 390.08,-56.7 393.4,-50.54"/>
<text text-anchor="middle" x="524.05" y="-106.2" font-family="Times,serif" font-size="14.00">(reads from</text>
<text text-anchor="middle" x="524.05" y="-89.7" font-family="Times,serif" font-size="14.00">and)</text>
<text text-anchor="middle" x="524.05" y="-73.2" font-family="Times,serif" font-size="14.00">writes to</text>
</g>
<!-- gentoo&#45;tree&#45;diff -->
<g id="node5" class="node">
<title>gentoo&#45;tree&#45;diff</title>
<ellipse fill="limegreen" stroke="black" cx="693" cy="-589" rx="101" ry="18"/>
<text text-anchor="middle" x="693" y="-583.95" font-family="monospace" font-size="14.00">gentoo&#45;tree&#45;diff</text>
</g>
<!-- ATOM_1 -->
<g id="node7" class="node">
<title>ATOM_1</title>
<ellipse fill="lightblue" stroke="black" cx="690" cy="-500.5" rx="32.41" ry="18"/>
<text text-anchor="middle" x="690" y="-495.45" font-family="Times,serif" font-size="14.00">Atom</text>
</g>
<!-- gentoo&#45;tree&#45;diff&#45;&gt;ATOM_1 -->
<g id="edge6" class="edge">
<title>gentoo&#45;tree&#45;diff&#45;&gt;ATOM_1</title>
<path fill="none" stroke="black" d="M692.41,-570.91C692,-559.26 691.46,-543.55 690.99,-530.02"/>
<polygon fill="black" stroke="black" points="694.5,-530.24 690.65,-520.36 687.5,-530.48 694.5,-530.24"/>
<text text-anchor="middle" x="707.89" y="-539.7" font-family="Times,serif" font-size="14.00">yields</text>
</g>
<!-- gentoo&#45;tree&#45;sync -->
<g id="node6" class="node">
<title>gentoo&#45;tree&#45;sync</title>
<ellipse fill="limegreen" stroke="black" cx="698" cy="-799" rx="101" ry="18"/>
<text text-anchor="middle" x="698" y="-793.95" font-family="monospace" font-size="14.00">gentoo&#45;tree&#45;sync</text>
</g>
<!-- portdir -->
<g id="node15" class="node">
<title>portdir</title>
<ellipse fill="#c1ffc1" stroke="black" cx="763" cy="-677.5" rx="41.12" ry="18"/>
<text text-anchor="middle" x="763" y="-672.45" font-family="Times,serif" font-size="14.00"> portdir/</text>
</g>
<!-- gentoo&#45;tree&#45;sync&#45;&gt;portdir -->
<g id="edge4" class="edge">
<title>gentoo&#45;tree&#45;sync&#45;&gt;portdir</title>
<path fill="none" stroke="black" d="M707.45,-780.62C718.2,-760.86 735.88,-728.37 748.4,-705.34"/>
<polygon fill="black" stroke="black" points="751.32,-707.3 753.02,-696.84 745.17,-703.95 751.32,-707.3"/>
<text text-anchor="middle" x="775.67" y="-749.7" font-family="Times,serif" font-size="14.00">(reads from</text>
<text text-anchor="middle" x="775.67" y="-733.2" font-family="Times,serif" font-size="14.00">and)</text>
<text text-anchor="middle" x="775.67" y="-716.7" font-family="Times,serif" font-size="14.00">writes to</text>
</g>
<!-- portdir&#45;old -->
<g id="node16" class="node">
<title>portdir&#45;old</title>
<ellipse fill="#c1ffc1" stroke="black" cx="648" cy="-677.5" rx="55.96" ry="18"/>
<text text-anchor="middle" x="648" y="-672.45" font-family="Times,serif" font-size="14.00"> portdir&#45;old/</text>
</g>
<!-- gentoo&#45;tree&#45;sync&#45;&gt;portdir&#45;old -->
<g id="edge5" class="edge">
<title>gentoo&#45;tree&#45;sync&#45;&gt;portdir&#45;old</title>
<path fill="none" stroke="black" d="M678.22,-781.03C673.13,-775.73 668.14,-769.55 664.75,-763 655.84,-745.79 651.66,-724.36 649.7,-707.39"/>
<polygon fill="black" stroke="black" points="653.19,-707.08 648.78,-697.45 646.22,-707.73 653.19,-707.08"/>
<text text-anchor="middle" x="688.38" y="-733.2" font-family="Times,serif" font-size="14.00">writes to</text>
</g>
<!-- ATOM_1&#45;&gt;gentoo&#45;local&#45;queue -->
<g id="edge7" class="edge">
<title>ATOM_1&#45;&gt;gentoo&#45;local&#45;queue</title>
<path fill="none" stroke="black" d="M688.9,-482.21C687.6,-461.55 685.39,-426.68 683.82,-401.95"/>
<polygon fill="black" stroke="black" points="687.33,-402.01 683.2,-392.25 680.34,-402.45 687.33,-402.01"/>
<text text-anchor="middle" x="700.39" y="-451.2" font-family="Times,serif" font-size="14.00">push</text>
</g>
<!-- GENTOO -->
<g id="node8" class="node">
<title>GENTOO</title>
<ellipse fill="#e066ff" stroke="black" cx="698" cy="-887.5" rx="38.04" ry="18"/>
<text text-anchor="middle" x="698" y="-882.45" font-family="Times,serif" font-size="14.00">Gentoo</text>
</g>
<!-- GENTOO&#45;&gt;gentoo&#45;tree&#45;sync -->
<g id="edge3" class="edge">
<title>GENTOO&#45;&gt;gentoo&#45;tree&#45;sync</title>
<path fill="none" stroke="black" d="M698,-869.41C698,-857.76 698,-842.05 698,-828.52"/>
<polygon fill="black" stroke="black" points="701.5,-828.86 698,-818.86 694.5,-828.86 701.5,-828.86"/>
<text text-anchor="middle" x="718.25" y="-838.2" font-family="Times,serif" font-size="14.00">read by</text>
</g>
<!-- ATOM_2&#45;&gt;gentoo&#45;build -->
<g id="edge19" class="edge">
<title>ATOM_2&#45;&gt;gentoo&#45;build</title>
<path fill="none" stroke="black" d="M739.21,-230.81C734.92,-228.93 730.4,-227.21 726,-226 491.81,-161.52 422.4,-208.24 182,-173.5 175.49,-172.56 168.73,-171.47 161.98,-170.29"/>
<polygon fill="black" stroke="black" points="162.62,-166.85 152.16,-168.53 161.39,-173.74 162.62,-166.85"/>
<text text-anchor="middle" x="669.23" y="-194.7" font-family="Times,serif" font-size="14.00">built by</text>
</g>
<!-- COMPILE_FLAGS -->
<g id="node10" class="node">
<title>COMPILE_FLAGS</title>
<ellipse fill="lightblue" stroke="black" cx="119" cy="-244" rx="103.04" ry="18"/>
<text text-anchor="middle" x="119" y="-238.95" font-family="Times,serif" font-size="14.00">CFLAGS, LDFLAGS, ..</text>
</g>
<!-- COMPILE_FLAGS&#45;&gt;gentoo&#45;build -->
<g id="edge10" class="edge">
<title>COMPILE_FLAGS&#45;&gt;gentoo&#45;build</title>
<path fill="none" stroke="black" d="M114.06,-225.91C110.66,-214.14 106.06,-198.23 102.12,-184.61"/>
<polygon fill="black" stroke="black" points="105.57,-183.94 99.43,-175.3 98.85,-185.88 105.57,-183.94"/>
<text text-anchor="middle" x="128.99" y="-194.7" font-family="Times,serif" font-size="14.00">read by</text>
</g>
<!-- etc&#45;portage -->
<g id="node11" class="node">
<title>etc&#45;portage</title>
<ellipse fill="#c1ffc1" stroke="black" cx="298" cy="-244" rx="57.49" ry="18"/>
<text text-anchor="middle" x="298" y="-238.95" font-family="Times,serif" font-size="14.00"> etc&#45;portage/</text>
</g>
<!-- etc&#45;portage&#45;&gt;gentoo&#45;build -->
<g id="edge11" class="edge">
<title>etc&#45;portage&#45;&gt;gentoo&#45;build</title>
<path fill="none" stroke="black" d="M264.77,-228.91C231.02,-214.6 178.48,-192.32 140.59,-176.25"/>
<polygon fill="black" stroke="black" points="142.28,-173.17 131.71,-172.49 139.55,-179.61 142.28,-173.17"/>
<text text-anchor="middle" x="234.52" y="-194.7" font-family="Times,serif" font-size="14.00">read by</text>
</g>
<!-- portdir&#45;&gt;gentoo&#45;build -->
<g id="edge12" class="edge">
<title>portdir&#45;&gt;gentoo&#45;build</title>
<path fill="none" stroke="black" d="M781.99,-661.1C799.24,-645.27 822,-618.9 822,-590 822,-590 822,-590 822,-243 822,-202.37 821.28,-213.46 694,-191.5 469.62,-152.79 408.24,-199.17 182,-173.5 175.1,-172.72 167.93,-171.69 160.8,-170.53"/>
<polygon fill="black" stroke="black" points="161.6,-167.12 151.15,-168.87 160.41,-174.01 161.6,-167.12"/>
<text text-anchor="middle" x="842.25" y="-451.2" font-family="Times,serif" font-size="14.00">read by</text>
</g>
<!-- portdir&#45;&gt;gentoo&#45;clean -->
<g id="edge15" class="edge">
<title>portdir&#45;&gt;gentoo&#45;clean</title>
<path fill="none" stroke="black" d="M798.25,-667.91C834.59,-656.7 886,-633.21 886,-590 886,-590 886,-590 886,-243 886,-140.7 739.83,-217.41 357,-173.5 350.1,-172.71 342.93,-171.68 335.8,-170.51"/>
<polygon fill="black" stroke="black" points="336.61,-167.1 326.16,-168.85 335.41,-174 336.61,-167.1"/>
<text text-anchor="middle" x="906.25" y="-451.2" font-family="Times,serif" font-size="14.00">read by</text>
</g>
<!-- portdir&#45;&gt;gentoo&#45;tree&#45;diff -->
<g id="edge1" class="edge">
<title>portdir&#45;&gt;gentoo&#45;tree&#45;diff</title>
<path fill="none" stroke="black" d="M749.83,-660.23C739.76,-647.78 725.68,-630.38 714.05,-616.01"/>
<polygon fill="black" stroke="black" points="716.79,-613.83 707.78,-608.26 711.35,-618.24 716.79,-613.83"/>
<text text-anchor="middle" x="754.52" y="-628.2" font-family="Times,serif" font-size="14.00">read by</text>
</g>
<!-- portdir&#45;old&#45;&gt;gentoo&#45;tree&#45;diff -->
<g id="edge2" class="edge">
<title>portdir&#45;old&#45;&gt;gentoo&#45;tree&#45;diff</title>
<path fill="none" stroke="black" d="M656.89,-659.41C663.14,-647.4 671.62,-631.09 678.8,-617.3"/>
<polygon fill="black" stroke="black" points="681.77,-619.18 683.28,-608.69 675.56,-615.95 681.77,-619.18"/>
<text text-anchor="middle" x="694.78" y="-628.2" font-family="Times,serif" font-size="14.00">read by</text>
</g>
</g>
</svg>
